<svg width="60" height="60" viewBox="0 0 60 60" fill="none" xmlns="http://www.w3.org/2000/svg">
<circle cx="30" cy="30" r="29" stroke="white" stroke-width="2"/>
<path d="M34.9997 27.1699C34.8123 26.9837 34.5589 26.8792 34.2947 26.8792C34.0305 26.8792 33.7771 26.9837 33.5897 27.1699L29.9997 30.7099L26.4597 27.1699C26.2723 26.9837 26.0189 26.8792 25.7547 26.8792C25.4905 26.8792 25.2371 26.9837 25.0497 27.1699C24.956 27.2629 24.8816 27.3735 24.8308 27.4954C24.78 27.6172 24.7539 27.7479 24.7539 27.8799C24.7539 28.012 24.78 28.1427 24.8308 28.2645C24.8816 28.3864 24.956 28.497 25.0497 28.5899L29.2897 32.8299C29.3827 32.9237 29.4933 32.9981 29.6151 33.0488C29.737 33.0996 29.8677 33.1257 29.9997 33.1257C30.1317 33.1257 30.2624 33.0996 30.3843 33.0488C30.5061 32.9981 30.6167 32.9237 30.7097 32.8299L34.9997 28.5899C35.0934 28.497 35.1678 28.3864 35.2186 28.2645C35.2694 28.1427 35.2955 28.012 35.2955 27.8799C35.2955 27.7479 35.2694 27.6172 35.2186 27.4954C35.1678 27.3735 35.0934 27.2629 34.9997 27.1699Z" fill="white"/>
</svg>
