<svg width="60" height="60" viewBox="0 0 60 60" fill="none" xmlns="http://www.w3.org/2000/svg">
<circle cx="30" cy="30" r="29" stroke="white" stroke-width="2"/>
<path d="M34.9997 27.17C34.8123 26.9838 34.5589 26.8792 34.2947 26.8792C34.0305 26.8792 33.7771 26.9838 33.5897 27.17L29.9997 30.71L26.4597 27.17C26.2723 26.9838 26.0189 26.8792 25.7547 26.8792C25.4905 26.8792 25.2371 26.9838 25.0497 27.17C24.956 27.263 24.8816 27.3736 24.8308 27.4954C24.78 27.6173 24.7539 27.748 24.7539 27.88C24.7539 28.012 24.78 28.1427 24.8308 28.2646C24.8816 28.3864 24.956 28.497 25.0497 28.59L29.2897 32.83C29.3827 32.9237 29.4933 32.9981 29.6151 33.0489C29.737 33.0997 29.8677 33.1258 29.9997 33.1258C30.1317 33.1258 30.2624 33.0997 30.3843 33.0489C30.5061 32.9981 30.6167 32.9237 30.7097 32.83L34.9997 28.59C35.0934 28.497 35.1678 28.3864 35.2186 28.2646C35.2694 28.1427 35.2955 28.012 35.2955 27.88C35.2955 27.748 35.2694 27.6173 35.2186 27.4954C35.1678 27.3736 35.0934 27.263 34.9997 27.17Z" fill="white"/>
</svg>
